<?xml version="1.0" encoding="UTF-8" standalone="no"?>
<!DOCTYPE svg PUBLIC "-//W3C//DTD SVG 1.1//EN"
 "http://www.w3.org/Graphics/SVG/1.1/DTD/svg11.dtd">
<!-- Generated by graphviz version 2.40.1 (20161225.0304)
 -->
<!-- Title: G Pages: 1 -->
<svg width="1533pt" height="188pt"
 viewBox="0.00 0.00 1533.42 188.00" xmlns="http://www.w3.org/2000/svg" xmlns:xlink="http://www.w3.org/1999/xlink">
<g id="graph0" class="graph" transform="scale(1 1) rotate(0) translate(4 184)">
<title>G</title>
<polygon fill="#ffffff" stroke="transparent" points="-4,4 -4,-184 1529.4198,-184 1529.4198,4 -4,4"/>
<!-- index.js -->
<g id="node1" class="node">
<title>index.js</title>
<ellipse fill="none" stroke="#000000" cx="843.3872" cy="-162" rx="41.1922" ry="18"/>
<text text-anchor="middle" x="843.3872" y="-157.8" font-family="Times,serif" font-size="14.00" fill="#000000">index.js</text>
</g>
<!-- lib/writeDependenciesSVG.js -->
<g id="node2" class="node">
<title>lib/writeDependenciesSVG.js</title>
<ellipse fill="none" stroke="#000000" cx="843.3872" cy="-90" rx="126.1575" ry="18"/>
<text text-anchor="middle" x="843.3872" y="-85.8" font-family="Times,serif" font-size="14.00" fill="#000000">lib/writeDependenciesSVG.js</text>
</g>
<!-- index.js&#45;&gt;lib/writeDependenciesSVG.js -->
<g id="edge1" class="edge">
<title>index.js&#45;&gt;lib/writeDependenciesSVG.js</title>
<path fill="none" stroke="#000000" d="M843.3872,-143.8314C843.3872,-136.131 843.3872,-126.9743 843.3872,-118.4166"/>
<polygon fill="#000000" stroke="#000000" points="846.8873,-118.4132 843.3872,-108.4133 839.8873,-118.4133 846.8873,-118.4132"/>
</g>
<!-- node_modules/@mithray/md&#45;terminal/index.js -->
<g id="node3" class="node">
<title>node_modules/@mithray/md&#45;terminal/index.js</title>
<ellipse fill="none" stroke="#000000" cx="192.3872" cy="-18" rx="192.2744" ry="18"/>
<text text-anchor="middle" x="192.3872" y="-13.8" font-family="Times,serif" font-size="14.00" fill="#000000">node_modules/@mithray/md&#45;terminal/index.js</text>
</g>
<!-- lib/writeDependenciesSVG.js&#45;&gt;node_modules/@mithray/md&#45;terminal/index.js -->
<g id="edge2" class="edge">
<title>lib/writeDependenciesSVG.js&#45;&gt;node_modules/@mithray/md&#45;terminal/index.js</title>
<path fill="none" stroke="#000000" d="M743.4506,-78.9471C631.8824,-66.6078 450.759,-46.5757 326.8303,-32.8693"/>
<polygon fill="#000000" stroke="#000000" points="327.2144,-29.3905 316.8902,-31.7699 326.4449,-36.3481 327.2144,-29.3905"/>
</g>
<!-- node_modules/json&#45;to&#45;dot/index.js -->
<g id="node4" class="node">
<title>node_modules/json&#45;to&#45;dot/index.js</title>
<ellipse fill="none" stroke="#000000" cx="548.3872" cy="-18" rx="145.3316" ry="18"/>
<text text-anchor="middle" x="548.3872" y="-13.8" font-family="Times,serif" font-size="14.00" fill="#000000">node_modules/json&#45;to&#45;dot/index.js</text>
</g>
<!-- lib/writeDependenciesSVG.js&#45;&gt;node_modules/json&#45;to&#45;dot/index.js -->
<g id="edge3" class="edge">
<title>lib/writeDependenciesSVG.js&#45;&gt;node_modules/json&#45;to&#45;dot/index.js</title>
<path fill="none" stroke="#000000" d="M779.3766,-74.3771C733.7186,-63.2334 672.1464,-48.2056 624.0537,-36.4678"/>
<polygon fill="#000000" stroke="#000000" points="624.8602,-33.0619 614.3155,-34.091 623.2004,-39.8623 624.8602,-33.0619"/>
</g>
<!-- node_modules/madge/lib/api.js -->
<g id="node5" class="node">
<title>node_modules/madge/lib/api.js</title>
<ellipse fill="none" stroke="#000000" cx="843.3872" cy="-18" rx="132.0046" ry="18"/>
<text text-anchor="middle" x="843.3872" y="-13.8" font-family="Times,serif" font-size="14.00" fill="#000000">node_modules/madge/lib/api.js</text>
</g>
<!-- lib/writeDependenciesSVG.js&#45;&gt;node_modules/madge/lib/api.js -->
<g id="edge4" class="edge">
<title>lib/writeDependenciesSVG.js&#45;&gt;node_modules/madge/lib/api.js</title>
<path fill="none" stroke="#000000" d="M843.3872,-71.8314C843.3872,-64.131 843.3872,-54.9743 843.3872,-46.4166"/>
<polygon fill="#000000" stroke="#000000" points="846.8873,-46.4132 843.3872,-36.4133 839.8873,-46.4133 846.8873,-46.4132"/>
</g>
<!-- node_modules/viz.js/full.render.js -->
<g id="node6" class="node">
<title>node_modules/viz.js/full.render.js</title>
<ellipse fill="none" stroke="#000000" cx="1136.3872" cy="-18" rx="142.9375" ry="18"/>
<text text-anchor="middle" x="1136.3872" y="-13.8" font-family="Times,serif" font-size="14.00" fill="#000000">node_modules/viz.js/full.render.js</text>
</g>
<!-- lib/writeDependenciesSVG.js&#45;&gt;node_modules/viz.js/full.render.js -->
<g id="edge5" class="edge">
<title>lib/writeDependenciesSVG.js&#45;&gt;node_modules/viz.js/full.render.js</title>
<path fill="none" stroke="#000000" d="M906.9638,-74.3771C952.2962,-63.2374 1013.4236,-48.2163 1061.1827,-36.4803"/>
<polygon fill="#000000" stroke="#000000" points="1062.2847,-39.8137 1071.1605,-34.0284 1060.6142,-33.0159 1062.2847,-39.8137"/>
</g>
<!-- node_modules/viz.js/viz.js -->
<g id="node7" class="node">
<title>node_modules/viz.js/viz.js</title>
<ellipse fill="none" stroke="#000000" cx="1411.3872" cy="-18" rx="114.0653" ry="18"/>
<text text-anchor="middle" x="1411.3872" y="-13.8" font-family="Times,serif" font-size="14.00" fill="#000000">node_modules/viz.js/viz.js</text>
</g>
<!-- lib/writeDependenciesSVG.js&#45;&gt;node_modules/viz.js/viz.js -->
<g id="edge6" class="edge">
<title>lib/writeDependenciesSVG.js&#45;&gt;node_modules/viz.js/viz.js</title>
<path fill="none" stroke="#000000" d="M942.0131,-78.7354C1032.2468,-68.2622 1169.4048,-51.9227 1288.3872,-36 1298.0933,-34.7011 1308.2229,-33.2971 1318.3208,-31.8662"/>
<polygon fill="#000000" stroke="#000000" points="1318.9862,-35.3068 1328.3914,-30.4291 1317.9973,-28.377 1318.9862,-35.3068"/>
</g>
</g>
</svg>
