<?xml version="1.0" encoding="UTF-8" standalone="no"?>
<!DOCTYPE svg PUBLIC "-//W3C//DTD SVG 1.1//EN"
 "http://www.w3.org/Graphics/SVG/1.1/DTD/svg11.dtd">
<!-- Generated by graphviz version 2.40.1 (20161225.0304)
 -->
<!-- Title: G Pages: 1 -->
<svg width="1130pt" height="188pt"
 viewBox="0.00 0.00 1130.45 188.00" xmlns="http://www.w3.org/2000/svg" xmlns:xlink="http://www.w3.org/1999/xlink">
<g id="graph0" class="graph" transform="scale(1 1) rotate(0) translate(4 184)">
<title>G</title>
<polygon fill="#ffffff" stroke="transparent" points="-4,4 -4,-184 1126.4484,-184 1126.4484,4 -4,4"/>
<!-- index.js -->
<g id="node1" class="node">
<title>index.js</title>
<ellipse fill="none" stroke="#000000" cx="586.4158" cy="-162" rx="41.1922" ry="18"/>
<text text-anchor="middle" x="586.4158" y="-157.8" font-family="Times,serif" font-size="14.00" fill="#000000">index.js</text>
</g>
<!-- lib/getDependenciesSVG.js -->
<g id="node2" class="node">
<title>lib/getDependenciesSVG.js</title>
<ellipse fill="none" stroke="#000000" cx="586.4158" cy="-90" rx="118.0748" ry="18"/>
<text text-anchor="middle" x="586.4158" y="-85.8" font-family="Times,serif" font-size="14.00" fill="#000000">lib/getDependenciesSVG.js</text>
</g>
<!-- index.js&#45;&gt;lib/getDependenciesSVG.js -->
<g id="edge1" class="edge">
<title>index.js&#45;&gt;lib/getDependenciesSVG.js</title>
<path fill="none" stroke="#000000" d="M586.4158,-143.8314C586.4158,-136.131 586.4158,-126.9743 586.4158,-118.4166"/>
<polygon fill="#000000" stroke="#000000" points="589.9159,-118.4132 586.4158,-108.4133 582.9159,-118.4133 589.9159,-118.4132"/>
</g>
<!-- node_modules/json&#45;to&#45;dot/index.js -->
<g id="node3" class="node">
<title>node_modules/json&#45;to&#45;dot/index.js</title>
<ellipse fill="none" stroke="#000000" cx="145.4158" cy="-18" rx="145.3316" ry="18"/>
<text text-anchor="middle" x="145.4158" y="-13.8" font-family="Times,serif" font-size="14.00" fill="#000000">node_modules/json&#45;to&#45;dot/index.js</text>
</g>
<!-- lib/getDependenciesSVG.js&#45;&gt;node_modules/json&#45;to&#45;dot/index.js -->
<g id="edge2" class="edge">
<title>lib/getDependenciesSVG.js&#45;&gt;node_modules/json&#45;to&#45;dot/index.js</title>
<path fill="none" stroke="#000000" d="M505.7861,-76.836C431.8965,-64.7724 322.3185,-46.8821 243.4069,-33.9985"/>
<polygon fill="#000000" stroke="#000000" points="243.8886,-30.5309 233.4553,-32.3738 242.7606,-37.4395 243.8886,-30.5309"/>
</g>
<!-- node_modules/madge/lib/api.js -->
<g id="node4" class="node">
<title>node_modules/madge/lib/api.js</title>
<ellipse fill="none" stroke="#000000" cx="440.4158" cy="-18" rx="132.0046" ry="18"/>
<text text-anchor="middle" x="440.4158" y="-13.8" font-family="Times,serif" font-size="14.00" fill="#000000">node_modules/madge/lib/api.js</text>
</g>
<!-- lib/getDependenciesSVG.js&#45;&gt;node_modules/madge/lib/api.js -->
<g id="edge3" class="edge">
<title>lib/getDependenciesSVG.js&#45;&gt;node_modules/madge/lib/api.js</title>
<path fill="none" stroke="#000000" d="M551.4452,-72.7542C531.4569,-62.897 506.191,-50.4371 484.8128,-39.8944"/>
<polygon fill="#000000" stroke="#000000" points="486.1239,-36.6385 475.6071,-35.3546 483.0278,-42.9166 486.1239,-36.6385"/>
</g>
<!-- node_modules/viz.js/full.render.js -->
<g id="node5" class="node">
<title>node_modules/viz.js/full.render.js</title>
<ellipse fill="none" stroke="#000000" cx="733.4158" cy="-18" rx="142.9375" ry="18"/>
<text text-anchor="middle" x="733.4158" y="-13.8" font-family="Times,serif" font-size="14.00" fill="#000000">node_modules/viz.js/full.render.js</text>
</g>
<!-- lib/getDependenciesSVG.js&#45;&gt;node_modules/viz.js/full.render.js -->
<g id="edge4" class="edge">
<title>lib/getDependenciesSVG.js&#45;&gt;node_modules/viz.js/full.render.js</title>
<path fill="none" stroke="#000000" d="M621.626,-72.7542C641.6771,-62.9332 667.0031,-50.5287 688.4771,-40.0108"/>
<polygon fill="#000000" stroke="#000000" points="690.2868,-43.0218 697.7279,-35.4798 687.2077,-36.7353 690.2868,-43.0218"/>
</g>
<!-- node_modules/viz.js/viz.js -->
<g id="node6" class="node">
<title>node_modules/viz.js/viz.js</title>
<ellipse fill="none" stroke="#000000" cx="1008.4158" cy="-18" rx="114.0653" ry="18"/>
<text text-anchor="middle" x="1008.4158" y="-13.8" font-family="Times,serif" font-size="14.00" fill="#000000">node_modules/viz.js/viz.js</text>
</g>
<!-- lib/getDependenciesSVG.js&#45;&gt;node_modules/viz.js/viz.js -->
<g id="edge5" class="edge">
<title>lib/getDependenciesSVG.js&#45;&gt;node_modules/viz.js/viz.js</title>
<path fill="none" stroke="#000000" d="M665.2957,-76.5418C737.8977,-64.1547 845.4203,-45.8097 920.6978,-32.9661"/>
<polygon fill="#000000" stroke="#000000" points="921.3673,-36.4025 930.6361,-31.2705 920.1899,-29.5023 921.3673,-36.4025"/>
</g>
</g>
</svg>
