<?xml version="1.0" encoding="UTF-8" standalone="no"?>
<!DOCTYPE svg PUBLIC "-//W3C//DTD SVG 1.1//EN"
 "http://www.w3.org/Graphics/SVG/1.1/DTD/svg11.dtd">
<!-- Generated by graphviz version 2.38.0 (20140413.2041)
 -->
<!-- Title: G Pages: 1 -->
<svg width="687pt" height="230pt"
 viewBox="0.00 0.00 687.20 230.20" xmlns="http://www.w3.org/2000/svg" xmlns:xlink="http://www.w3.org/1999/xlink">
<g id="graph0" class="graph" transform="scale(1 1) rotate(0) translate(21.6 208.6)">
<title>G</title>
<polygon fill="#232323" stroke="none" points="-21.6,21.6 -21.6,-208.6 665.6,-208.6 665.6,21.6 -21.6,21.6"/>
<!-- index.js -->
<g id="node1" class="node"><title>index.js</title>
<path fill="none" stroke="#eaeaea" d="M57.3333,-105C57.3333,-105 7.66667,-105 7.66667,-105 3.83333,-105 0,-101.167 0,-97.3333 0,-97.3333 0,-89.6667 0,-89.6667 0,-85.8333 3.83333,-82 7.66667,-82 7.66667,-82 57.3333,-82 57.3333,-82 61.1667,-82 65,-85.8333 65,-89.6667 65,-89.6667 65,-97.3333 65,-97.3333 65,-101.167 61.1667,-105 57.3333,-105"/>
<text text-anchor="middle" x="32.5" y="-89.8" font-family="Arial" font-size="14.00" fill="#eaeaea">index.js</text>
</g>
<!-- lib/writeDependenciesSVG.js -->
<g id="node2" class="node"><title>lib/writeDependenciesSVG.js</title>
<path fill="none" stroke="#eaeaea" d="M295.333,-105C295.333,-105 108.667,-105 108.667,-105 104.833,-105 101,-101.167 101,-97.3333 101,-97.3333 101,-89.6667 101,-89.6667 101,-85.8333 104.833,-82 108.667,-82 108.667,-82 295.333,-82 295.333,-82 299.167,-82 303,-85.8333 303,-89.6667 303,-89.6667 303,-97.3333 303,-97.3333 303,-101.167 299.167,-105 295.333,-105"/>
<text text-anchor="middle" x="202" y="-89.8" font-family="Arial" font-size="14.00" fill="#eaeaea">lib/writeDependenciesSVG.js</text>
</g>
<!-- index.js&#45;&gt;lib/writeDependenciesSVG.js -->
<g id="edge1" class="edge"><title>index.js&#45;&gt;lib/writeDependenciesSVG.js</title>
<path fill="none" stroke="#f8f8f8" d="M65.0055,-93.5C72.7305,-93.5 81.4428,-93.5 90.6324,-93.5"/>
<polygon fill="#f8f8f8" stroke="#f8f8f8" points="90.7671,-97.0001 100.767,-93.5 90.7671,-90.0001 90.7671,-97.0001"/>
</g>
<!-- node_modules/@mithray/md&#45;terminal/index.js -->
<g id="node3" class="node"><title>node_modules/@mithray/md&#45;terminal/index.js</title>
<path fill="none" stroke="#cfffac" d="M636.333,-187C636.333,-187 346.667,-187 346.667,-187 342.833,-187 339,-183.167 339,-179.333 339,-179.333 339,-171.667 339,-171.667 339,-167.833 342.833,-164 346.667,-164 346.667,-164 636.333,-164 636.333,-164 640.167,-164 644,-167.833 644,-171.667 644,-171.667 644,-179.333 644,-179.333 644,-183.167 640.167,-187 636.333,-187"/>
<text text-anchor="middle" x="491.5" y="-171.8" font-family="Arial" font-size="14.00" fill="#cfffac">node_modules/@mithray/md&#45;terminal/index.js</text>
</g>
<!-- lib/writeDependenciesSVG.js&#45;&gt;node_modules/@mithray/md&#45;terminal/index.js -->
<g id="edge2" class="edge"><title>lib/writeDependenciesSVG.js&#45;&gt;node_modules/@mithray/md&#45;terminal/index.js</title>
<path fill="none" stroke="#f8f8f8" d="M223.462,-105.168C249.454,-119.432 296.1,-143.187 339,-155.5 347.43,-157.92 356.21,-160.048 365.107,-161.919"/>
<polygon fill="#f8f8f8" stroke="#f8f8f8" points="364.7,-165.407 375.191,-163.925 366.066,-158.541 364.7,-165.407"/>
</g>
<!-- node_modules/json&#45;to&#45;dot/index.js -->
<g id="node4" class="node"><title>node_modules/json&#45;to&#45;dot/index.js</title>
<path fill="none" stroke="#cfffac" d="M601.333,-146C601.333,-146 381.667,-146 381.667,-146 377.833,-146 374,-142.167 374,-138.333 374,-138.333 374,-130.667 374,-130.667 374,-126.833 377.833,-123 381.667,-123 381.667,-123 601.333,-123 601.333,-123 605.167,-123 609,-126.833 609,-130.667 609,-130.667 609,-138.333 609,-138.333 609,-142.167 605.167,-146 601.333,-146"/>
<text text-anchor="middle" x="491.5" y="-130.8" font-family="Arial" font-size="14.00" fill="#cfffac">node_modules/json&#45;to&#45;dot/index.js</text>
</g>
<!-- lib/writeDependenciesSVG.js&#45;&gt;node_modules/json&#45;to&#45;dot/index.js -->
<g id="edge3" class="edge"><title>lib/writeDependenciesSVG.js&#45;&gt;node_modules/json&#45;to&#45;dot/index.js</title>
<path fill="none" stroke="#f8f8f8" d="M275.654,-105.02C296.127,-108.185 318.425,-111.554 339,-114.5 355.685,-116.889 373.419,-119.324 390.654,-121.635"/>
<polygon fill="#f8f8f8" stroke="#f8f8f8" points="390.357,-125.127 400.732,-122.98 391.283,-118.188 390.357,-125.127"/>
</g>
<!-- node_modules/madge/lib/api.js -->
<g id="node5" class="node"><title>node_modules/madge/lib/api.js</title>
<path fill="none" stroke="#cfffac" d="M591.333,-105C591.333,-105 391.667,-105 391.667,-105 387.833,-105 384,-101.167 384,-97.3333 384,-97.3333 384,-89.6667 384,-89.6667 384,-85.8333 387.833,-82 391.667,-82 391.667,-82 591.333,-82 591.333,-82 595.167,-82 599,-85.8333 599,-89.6667 599,-89.6667 599,-97.3333 599,-97.3333 599,-101.167 595.167,-105 591.333,-105"/>
<text text-anchor="middle" x="491.5" y="-89.8" font-family="Arial" font-size="14.00" fill="#cfffac">node_modules/madge/lib/api.js</text>
</g>
<!-- lib/writeDependenciesSVG.js&#45;&gt;node_modules/madge/lib/api.js -->
<g id="edge4" class="edge"><title>lib/writeDependenciesSVG.js&#45;&gt;node_modules/madge/lib/api.js</title>
<path fill="none" stroke="#f8f8f8" d="M303.15,-93.5C325.878,-93.5 350.211,-93.5 373.566,-93.5"/>
<polygon fill="#f8f8f8" stroke="#f8f8f8" points="373.861,-97.0001 383.861,-93.5 373.861,-90.0001 373.861,-97.0001"/>
</g>
<!-- node_modules/viz.js/full.render.js -->
<g id="node6" class="node"><title>node_modules/viz.js/full.render.js</title>
<path fill="none" stroke="#cfffac" d="M597.333,-64C597.333,-64 385.667,-64 385.667,-64 381.833,-64 378,-60.1667 378,-56.3333 378,-56.3333 378,-48.6667 378,-48.6667 378,-44.8333 381.833,-41 385.667,-41 385.667,-41 597.333,-41 597.333,-41 601.167,-41 605,-44.8333 605,-48.6667 605,-48.6667 605,-56.3333 605,-56.3333 605,-60.1667 601.167,-64 597.333,-64"/>
<text text-anchor="middle" x="491.5" y="-48.8" font-family="Arial" font-size="14.00" fill="#cfffac">node_modules/viz.js/full.render.js</text>
</g>
<!-- lib/writeDependenciesSVG.js&#45;&gt;node_modules/viz.js/full.render.js -->
<g id="edge5" class="edge"><title>lib/writeDependenciesSVG.js&#45;&gt;node_modules/viz.js/full.render.js</title>
<path fill="none" stroke="#f8f8f8" d="M280.657,-81.9666C299.731,-79.1651 320.1,-76.1996 339,-73.5 357.494,-70.8584 377.266,-68.0827 396.216,-65.446"/>
<polygon fill="#f8f8f8" stroke="#f8f8f8" points="396.918,-68.8822 406.341,-64.0395 395.955,-61.9487 396.918,-68.8822"/>
</g>
<!-- node_modules/viz.js/viz.js -->
<g id="node7" class="node"><title>node_modules/viz.js/viz.js</title>
<path fill="none" stroke="#cfffac" d="M574.333,-23C574.333,-23 408.667,-23 408.667,-23 404.833,-23 401,-19.1667 401,-15.3333 401,-15.3333 401,-7.66667 401,-7.66667 401,-3.83333 404.833,-0 408.667,-0 408.667,-0 574.333,-0 574.333,-0 578.167,-0 582,-3.83333 582,-7.66667 582,-7.66667 582,-15.3333 582,-15.3333 582,-19.1667 578.167,-23 574.333,-23"/>
<text text-anchor="middle" x="491.5" y="-7.8" font-family="Arial" font-size="14.00" fill="#cfffac">node_modules/viz.js/viz.js</text>
</g>
<!-- lib/writeDependenciesSVG.js&#45;&gt;node_modules/viz.js/viz.js -->
<g id="edge6" class="edge"><title>lib/writeDependenciesSVG.js&#45;&gt;node_modules/viz.js/viz.js</title>
<path fill="none" stroke="#f8f8f8" d="M223.957,-81.831C250.076,-67.8289 296.469,-44.7154 339,-32.5 355.428,-27.7818 373.172,-24.1086 390.533,-21.2532"/>
<polygon fill="#f8f8f8" stroke="#f8f8f8" points="391.357,-24.6669 400.697,-19.6648 390.276,-17.7509 391.357,-24.6669"/>
</g>
</g>
</svg>
