<?xml version="1.0" encoding="UTF-8" standalone="no"?>
<!DOCTYPE svg PUBLIC "-//W3C//DTD SVG 1.1//EN"
 "http://www.w3.org/Graphics/SVG/1.1/DTD/svg11.dtd">
<!-- Generated by graphviz version 2.38.0 (20140413.2041)
 -->
<!-- Title: %3 Pages: 1 -->
<svg width="1500pt" height="746pt"
 viewBox="0.00 0.00 1500.49 746.00" xmlns="http://www.w3.org/2000/svg" xmlns:xlink="http://www.w3.org/1999/xlink">
<g id="graph0" class="graph" transform="scale(1 1) rotate(0) translate(4 742)">
<title>%3</title>
<polygon fill="white" stroke="none" points="-4,4 -4,-742 1496.49,-742 1496.49,4 -4,4"/>
<!-- analyze_project@0.0.1 -->
<g id="node1" class="node"><title>analyze_project@0.0.1</title>
<ellipse fill="none" stroke="black" cx="92.9418" cy="-342" rx="92.8835" ry="18"/>
<text text-anchor="middle" x="92.9418" y="-338.3" font-family="Times,serif" font-size="14.00">analyze_project@0.0.1</text>
</g>
<!-- N_1 -->
<g id="node2" class="node"><title>N_1</title>
<ellipse fill="#ff6600" stroke="black" cx="328.474" cy="-558" rx="76.8869" ry="18"/>
<text text-anchor="middle" x="328.474" y="-554.3" font-family="Times,serif" font-size="14.00">configstore@4.0.0</text>
</g>
<!-- analyze_project@0.0.1&#45;&gt;N_1 -->
<g id="edge1" class="edge"><title>analyze_project@0.0.1&#45;&gt;N_1</title>
<path fill="none" stroke="black" d="M113.053,-359.676C154.638,-398.14 253.413,-489.499 300.978,-533.493"/>
<polygon fill="black" stroke="black" points="298.709,-536.162 308.427,-540.383 303.462,-531.023 298.709,-536.162"/>
</g>
<!-- N_14 -->
<g id="node15" class="node"><title>N_14</title>
<ellipse fill="#ff6600" stroke="black" cx="328.474" cy="-396" rx="71.4873" ry="18"/>
<text text-anchor="middle" x="328.474" y="-392.3" font-family="Times,serif" font-size="14.00">file&#45;type@10.7.1</text>
</g>
<!-- analyze_project@0.0.1&#45;&gt;N_14 -->
<g id="edge14" class="edge"><title>analyze_project@0.0.1&#45;&gt;N_14</title>
<path fill="none" stroke="black" d="M153.476,-355.766C187.669,-363.673 230.56,-373.59 265.202,-381.601"/>
<polygon fill="black" stroke="black" points="264.672,-385.07 275.203,-383.913 266.249,-378.25 264.672,-385.07"/>
</g>
<!-- N_15 -->
<g id="node16" class="node"><title>N_15</title>
<ellipse fill="#ff6600" stroke="black" cx="328.474" cy="-342" rx="67.6881" ry="18"/>
<text text-anchor="middle" x="328.474" y="-338.3" font-family="Times,serif" font-size="14.00">gtmetrix@1.3.0</text>
</g>
<!-- analyze_project@0.0.1&#45;&gt;N_15 -->
<g id="edge15" class="edge"><title>analyze_project@0.0.1&#45;&gt;N_15</title>
<path fill="none" stroke="black" d="M185.905,-342C207.404,-342 230.079,-342 250.83,-342"/>
<polygon fill="black" stroke="black" points="250.849,-345.5 260.849,-342 250.848,-338.5 250.849,-345.5"/>
</g>
<!-- N_18 -->
<g id="node19" class="node"><title>N_18</title>
<ellipse fill="#ff6600" stroke="black" cx="328.474" cy="-261" rx="106.681" ry="18"/>
<text text-anchor="middle" x="328.474" y="-257.3" font-family="Times,serif" font-size="14.00">opencage&#45;api&#45;client@0.4.0</text>
</g>
<!-- analyze_project@0.0.1&#45;&gt;N_18 -->
<g id="edge18" class="edge"><title>analyze_project@0.0.1&#45;&gt;N_18</title>
<path fill="none" stroke="black" d="M139.246,-326.286C176.945,-313.211 230.791,-294.534 271.241,-280.504"/>
<polygon fill="black" stroke="black" points="272.395,-283.809 280.696,-277.225 270.101,-277.195 272.395,-283.809"/>
</g>
<!-- N_28 -->
<g id="node29" class="node"><title>N_28</title>
<ellipse fill="#ff6600" stroke="black" cx="328.474" cy="-126" rx="76.8869" ry="18"/>
<text text-anchor="middle" x="328.474" y="-122.3" font-family="Times,serif" font-size="14.00">read&#45;chunk@3.0.0</text>
</g>
<!-- analyze_project@0.0.1&#45;&gt;N_28 -->
<g id="edge28" class="edge"><title>analyze_project@0.0.1&#45;&gt;N_28</title>
<path fill="none" stroke="black" d="M113.053,-324.324C154.638,-285.86 253.413,-194.501 300.978,-150.507"/>
<polygon fill="black" stroke="black" points="303.462,-152.977 308.427,-143.617 298.709,-147.838 303.462,-152.977"/>
</g>
<!-- N_2 -->
<g id="node3" class="node"><title>N_2</title>
<ellipse fill="#ffcc00" stroke="black" cx="569.856" cy="-720" rx="67.6881" ry="18"/>
<text text-anchor="middle" x="569.856" y="-716.3" font-family="Times,serif" font-size="14.00">dot&#45;prop@4.2.0</text>
</g>
<!-- N_1&#45;&gt;N_2 -->
<g id="edge2" class="edge"><title>N_1&#45;&gt;N_2</title>
<path fill="none" stroke="black" d="M343.115,-575.776C366.261,-604.704 416.1,-661.858 471.065,-693 481.139,-698.708 492.488,-703.265 503.793,-706.885"/>
<polygon fill="black" stroke="black" points="503.101,-710.331 513.684,-709.832 505.099,-703.622 503.101,-710.331"/>
</g>
<!-- N_4 -->
<g id="node5" class="node"><title>N_4</title>
<ellipse fill="#ffcc00" stroke="black" cx="569.856" cy="-666" rx="79.0865" ry="18"/>
<text text-anchor="middle" x="569.856" y="-662.3" font-family="Times,serif" font-size="14.00">graceful&#45;fs@4.1.15</text>
</g>
<!-- N_1&#45;&gt;N_4 -->
<g id="edge4" class="edge"><title>N_1&#45;&gt;N_4</title>
<path fill="none" stroke="black" d="M354.577,-574.948C382.138,-592.927 428.188,-621.149 471.065,-639 481.44,-643.32 492.718,-647.163 503.805,-650.5"/>
<polygon fill="black" stroke="black" points="502.893,-653.879 513.472,-653.301 504.841,-647.156 502.893,-653.879"/>
</g>
<!-- N_5 -->
<g id="node6" class="node"><title>N_5</title>
<ellipse fill="#ffcc00" stroke="black" cx="569.856" cy="-612" rx="69.5877" ry="18"/>
<text text-anchor="middle" x="569.856" y="-608.3" font-family="Times,serif" font-size="14.00">make&#45;dir@1.3.0</text>
</g>
<!-- N_1&#45;&gt;N_5 -->
<g id="edge5" class="edge"><title>N_1&#45;&gt;N_5</title>
<path fill="none" stroke="black" d="M384.393,-570.389C420.886,-578.621 468.874,-589.446 506.757,-597.992"/>
<polygon fill="black" stroke="black" points="506.13,-601.438 516.655,-600.225 507.671,-594.61 506.13,-601.438"/>
</g>
<!-- N_7 -->
<g id="node8" class="node"><title>N_7</title>
<ellipse fill="#ffcc00" stroke="black" cx="569.856" cy="-558" rx="83.6854" ry="18"/>
<text text-anchor="middle" x="569.856" y="-554.3" font-family="Times,serif" font-size="14.00">unique&#45;string@1.0.0</text>
</g>
<!-- N_1&#45;&gt;N_7 -->
<g id="edge7" class="edge"><title>N_1&#45;&gt;N_7</title>
<path fill="none" stroke="black" d="M405.216,-558C427.528,-558 452.207,-558 475.488,-558"/>
<polygon fill="black" stroke="black" points="475.72,-561.5 485.72,-558 475.72,-554.5 475.72,-561.5"/>
</g>
<!-- N_9 -->
<g id="node10" class="node"><title>N_9</title>
<ellipse fill="#ffcc00" stroke="black" cx="569.856" cy="-504" rx="96.6831" ry="18"/>
<text text-anchor="middle" x="569.856" y="-500.3" font-family="Times,serif" font-size="14.00">write&#45;file&#45;atomic@2.4.2</text>
</g>
<!-- N_1&#45;&gt;N_9 -->
<g id="edge9" class="edge"><title>N_1&#45;&gt;N_9</title>
<path fill="none" stroke="black" d="M384.393,-545.611C417.955,-538.04 461.24,-528.276 497.445,-520.109"/>
<polygon fill="black" stroke="black" points="498.47,-523.466 507.454,-517.851 496.929,-516.637 498.47,-523.466"/>
</g>
<!-- N_13 -->
<g id="node14" class="node"><title>N_13</title>
<ellipse fill="#ffcc00" stroke="black" cx="569.856" cy="-450" rx="78.7863" ry="18"/>
<text text-anchor="middle" x="569.856" y="-446.3" font-family="Times,serif" font-size="14.00">xdg&#45;basedir@3.0.0</text>
</g>
<!-- N_1&#45;&gt;N_13 -->
<g id="edge13" class="edge"><title>N_1&#45;&gt;N_13</title>
<path fill="none" stroke="black" d="M354.577,-541.052C382.138,-523.073 428.188,-494.851 471.065,-477 481.503,-472.654 492.855,-468.79 504.007,-465.439"/>
<polygon fill="black" stroke="black" points="505.094,-468.769 513.727,-462.628 503.149,-462.044 505.094,-468.769"/>
</g>
<!-- N_3 -->
<g id="node4" class="node"><title>N_3</title>
<ellipse fill="#cbff00" stroke="black" cx="817.087" cy="-720" rx="57.3905" ry="18"/>
<text text-anchor="middle" x="817.087" y="-716.3" font-family="Times,serif" font-size="14.00">is&#45;obj@1.0.1</text>
</g>
<!-- N_2&#45;&gt;N_3 -->
<g id="edge3" class="edge"><title>N_2&#45;&gt;N_3</title>
<path fill="none" stroke="black" d="M637.542,-720C672.396,-720 714.924,-720 749.729,-720"/>
<polygon fill="black" stroke="black" points="749.796,-723.5 759.796,-720 749.796,-716.5 749.796,-723.5"/>
</g>
<!-- N_6 -->
<g id="node7" class="node"><title>N_6</title>
<ellipse fill="#cbff00" stroke="black" cx="817.087" cy="-612" rx="51.1914" ry="18"/>
<text text-anchor="middle" x="817.087" y="-608.3" font-family="Times,serif" font-size="14.00">pify@3.0.0</text>
</g>
<!-- N_5&#45;&gt;N_6 -->
<g id="edge6" class="edge"><title>N_5&#45;&gt;N_6</title>
<path fill="none" stroke="black" d="M639.492,-612C675.861,-612 720.144,-612 755.268,-612"/>
<polygon fill="black" stroke="black" points="755.385,-615.5 765.385,-612 755.385,-608.5 755.385,-615.5"/>
</g>
<!-- N_8 -->
<g id="node9" class="node"><title>N_8</title>
<ellipse fill="#cbff00" stroke="black" cx="817.087" cy="-558" rx="112.38" ry="18"/>
<text text-anchor="middle" x="817.087" y="-554.3" font-family="Times,serif" font-size="14.00">crypto&#45;random&#45;string@1.0.0</text>
</g>
<!-- N_7&#45;&gt;N_8 -->
<g id="edge8" class="edge"><title>N_7&#45;&gt;N_8</title>
<path fill="none" stroke="black" d="M653.88,-558C666.835,-558 680.451,-558 694.057,-558"/>
<polygon fill="black" stroke="black" points="694.448,-561.5 704.448,-558 694.448,-554.5 694.448,-561.5"/>
</g>
<!-- N_10 -->
<g id="node11" class="node"><title>N_10</title>
<ellipse fill="#cbff00" stroke="black" cx="817.087" cy="-504" rx="79.0865" ry="18"/>
<text text-anchor="middle" x="817.087" y="-500.3" font-family="Times,serif" font-size="14.00">graceful&#45;fs@4.1.15</text>
</g>
<!-- N_9&#45;&gt;N_10 -->
<g id="edge10" class="edge"><title>N_9&#45;&gt;N_10</title>
<path fill="none" stroke="black" d="M666.722,-504C686.742,-504 707.761,-504 727.502,-504"/>
<polygon fill="black" stroke="black" points="727.697,-507.5 737.697,-504 727.697,-500.5 727.697,-507.5"/>
</g>
<!-- N_11 -->
<g id="node12" class="node"><title>N_11</title>
<ellipse fill="#cbff00" stroke="black" cx="817.087" cy="-450" rx="85.2851" ry="18"/>
<text text-anchor="middle" x="817.087" y="-446.3" font-family="Times,serif" font-size="14.00">imurmurhash@0.1.4</text>
</g>
<!-- N_9&#45;&gt;N_11 -->
<g id="edge11" class="edge"><title>N_9&#45;&gt;N_11</title>
<path fill="none" stroke="black" d="M633.055,-490.304C667.946,-482.621 711.537,-473.022 747.426,-465.119"/>
<polygon fill="black" stroke="black" points="748.317,-468.507 757.33,-462.938 746.812,-461.671 748.317,-468.507"/>
</g>
<!-- N_12 -->
<g id="node13" class="node"><title>N_12</title>
<ellipse fill="#cbff00" stroke="black" cx="817.087" cy="-396" rx="74.187" ry="18"/>
<text text-anchor="middle" x="817.087" y="-392.3" font-family="Times,serif" font-size="14.00">signal&#45;exit@3.0.2</text>
</g>
<!-- N_9&#45;&gt;N_12 -->
<g id="edge12" class="edge"><title>N_9&#45;&gt;N_12</title>
<path fill="none" stroke="black" d="M640.245,-491.552C650.328,-487.886 660.155,-483.141 668.647,-477 692.02,-460.098 681.009,-439.53 704.647,-423 715.074,-415.709 727.241,-410.375 739.629,-406.476"/>
<polygon fill="black" stroke="black" points="740.92,-409.748 749.582,-403.647 739.006,-403.015 740.92,-409.748"/>
</g>
<!-- N_16 -->
<g id="node17" class="node"><title>N_16</title>
<ellipse fill="#ffcc00" stroke="black" cx="569.856" cy="-396" rx="86.3847" ry="18"/>
<text text-anchor="middle" x="569.856" y="-392.3" font-family="Times,serif" font-size="14.00">es6&#45;promisify@6.0.1</text>
</g>
<!-- N_15&#45;&gt;N_16 -->
<g id="edge16" class="edge"><title>N_15&#45;&gt;N_16</title>
<path fill="none" stroke="black" d="M380.534,-353.518C415.449,-361.394 462.133,-371.925 500.285,-380.532"/>
<polygon fill="black" stroke="black" points="499.768,-384.003 510.293,-382.789 501.309,-377.175 499.768,-384.003"/>
</g>
<!-- N_17 -->
<g id="node18" class="node"><title>N_17</title>
<ellipse fill="#ffcc00" stroke="black" cx="569.856" cy="-342" rx="66.0889" ry="18"/>
<text text-anchor="middle" x="569.856" y="-338.3" font-family="Times,serif" font-size="14.00">httpreq@0.4.24</text>
</g>
<!-- N_15&#45;&gt;N_17 -->
<g id="edge17" class="edge"><title>N_15&#45;&gt;N_17</title>
<path fill="none" stroke="black" d="M396.155,-342C426.234,-342 461.91,-342 493.005,-342"/>
<polygon fill="black" stroke="black" points="493.36,-345.5 503.36,-342 493.36,-338.5 493.36,-345.5"/>
</g>
<!-- N_19 -->
<g id="node20" class="node"><title>N_19</title>
<ellipse fill="#ffcc00" stroke="black" cx="569.856" cy="-288" rx="61.1893" ry="18"/>
<text text-anchor="middle" x="569.856" y="-284.3" font-family="Times,serif" font-size="14.00">dotenv@6.2.0</text>
</g>
<!-- N_18&#45;&gt;N_19 -->
<g id="edge19" class="edge"><title>N_18&#45;&gt;N_19</title>
<path fill="none" stroke="black" d="M417.591,-270.939C445.601,-274.098 476.096,-277.538 502.319,-280.495"/>
<polygon fill="black" stroke="black" points="502.191,-284.003 512.52,-281.646 502.975,-277.047 502.191,-284.003"/>
</g>
<!-- N_20 -->
<g id="node21" class="node"><title>N_20</title>
<ellipse fill="#ffcc00" stroke="black" cx="569.856" cy="-234" rx="80.6858" ry="18"/>
<text text-anchor="middle" x="569.856" y="-230.3" font-family="Times,serif" font-size="14.00">es6&#45;promise@4.2.5</text>
</g>
<!-- N_18&#45;&gt;N_20 -->
<g id="edge20" class="edge"><title>N_18&#45;&gt;N_20</title>
<path fill="none" stroke="black" d="M417.591,-251.061C440.366,-248.492 464.783,-245.738 487.21,-243.209"/>
<polygon fill="black" stroke="black" points="487.817,-246.663 497.362,-242.064 487.033,-239.707 487.817,-246.663"/>
</g>
<!-- N_21 -->
<g id="node22" class="node"><title>N_21</title>
<ellipse fill="#ffcc00" stroke="black" cx="569.856" cy="-180" rx="98.5829" ry="18"/>
<text text-anchor="middle" x="569.856" y="-176.3" font-family="Times,serif" font-size="14.00">fetch&#45;everywhere@1.0.5</text>
</g>
<!-- N_18&#45;&gt;N_21 -->
<g id="edge21" class="edge"><title>N_18&#45;&gt;N_21</title>
<path fill="none" stroke="black" d="M370.001,-244.368C398.117,-233.121 436.566,-218.313 471.065,-207 481.187,-203.681 491.986,-200.422 502.575,-197.382"/>
<polygon fill="black" stroke="black" points="503.546,-200.745 512.216,-194.656 501.641,-194.009 503.546,-200.745"/>
</g>
<!-- N_22 -->
<g id="node23" class="node"><title>N_22</title>
<ellipse fill="#cbff00" stroke="black" cx="817.087" cy="-234" rx="74.9875" ry="18"/>
<text text-anchor="middle" x="817.087" y="-230.3" font-family="Times,serif" font-size="14.00">node&#45;fetch@1.7.3</text>
</g>
<!-- N_21&#45;&gt;N_22 -->
<g id="edge22" class="edge"><title>N_21&#45;&gt;N_22</title>
<path fill="none" stroke="black" d="M633.691,-193.836C669.751,-201.777 714.946,-211.729 751.325,-219.739"/>
<polygon fill="black" stroke="black" points="750.819,-223.212 761.337,-221.944 752.324,-216.375 750.819,-223.212"/>
</g>
<!-- N_27 -->
<g id="node28" class="node"><title>N_27</title>
<ellipse fill="#cbff00" stroke="black" cx="817.087" cy="-180" rx="85.2851" ry="18"/>
<text text-anchor="middle" x="817.087" y="-176.3" font-family="Times,serif" font-size="14.00">whatwg&#45;fetch@3.0.0</text>
</g>
<!-- N_21&#45;&gt;N_27 -->
<g id="edge27" class="edge"><title>N_21&#45;&gt;N_27</title>
<path fill="none" stroke="black" d="M668.835,-180C686.233,-180 704.32,-180 721.618,-180"/>
<polygon fill="black" stroke="black" points="721.7,-183.5 731.7,-180 721.7,-176.5 721.7,-183.5"/>
</g>
<!-- N_23 -->
<g id="node24" class="node"><title>N_23</title>
<ellipse fill="#66ff00" stroke="black" cx="1038.97" cy="-261" rx="73.387" ry="18"/>
<text text-anchor="middle" x="1038.97" y="-257.3" font-family="Times,serif" font-size="14.00">encoding@0.1.12</text>
</g>
<!-- N_22&#45;&gt;N_23 -->
<g id="edge23" class="edge"><title>N_22&#45;&gt;N_23</title>
<path fill="none" stroke="black" d="M884.059,-242.101C908.851,-245.145 937.215,-248.628 962.783,-251.768"/>
<polygon fill="black" stroke="black" points="962.451,-255.253 972.803,-252.998 963.304,-248.305 962.451,-255.253"/>
</g>
<!-- N_26 -->
<g id="node27" class="node"><title>N_26</title>
<ellipse fill="#66ff00" stroke="black" cx="1038.97" cy="-207" rx="69.5877" ry="18"/>
<text text-anchor="middle" x="1038.97" y="-203.3" font-family="Times,serif" font-size="14.00">is&#45;stream@1.1.0</text>
</g>
<!-- N_22&#45;&gt;N_26 -->
<g id="edge26" class="edge"><title>N_22&#45;&gt;N_26</title>
<path fill="none" stroke="black" d="M884.059,-225.899C909.858,-222.731 939.525,-219.088 965.885,-215.852"/>
<polygon fill="black" stroke="black" points="966.312,-219.326 975.81,-214.633 965.458,-212.378 966.312,-219.326"/>
</g>
<!-- N_24 -->
<g id="node25" class="node"><title>N_24</title>
<ellipse fill="#00ff00" stroke="black" cx="1223.81" cy="-261" rx="75.2868" ry="18"/>
<text text-anchor="middle" x="1223.81" y="-257.3" font-family="Times,serif" font-size="14.00">iconv&#45;lite@0.4.24</text>
</g>
<!-- N_23&#45;&gt;N_24 -->
<g id="edge24" class="edge"><title>N_23&#45;&gt;N_24</title>
<path fill="none" stroke="black" d="M1112.5,-261C1120.95,-261 1129.63,-261 1138.23,-261"/>
<polygon fill="black" stroke="black" points="1138.27,-264.5 1148.27,-261 1138.27,-257.5 1138.27,-264.5"/>
</g>
<!-- N_25 -->
<g id="node26" class="node"><title>N_25</title>
<ellipse fill="#00ff66" stroke="black" cx="1413.84" cy="-261" rx="78.7863" ry="18"/>
<text text-anchor="middle" x="1413.84" y="-257.3" font-family="Times,serif" font-size="14.00">safer&#45;buffer@2.1.2</text>
</g>
<!-- N_24&#45;&gt;N_25 -->
<g id="edge25" class="edge"><title>N_24&#45;&gt;N_25</title>
<path fill="none" stroke="black" d="M1299.39,-261C1307.7,-261 1316.23,-261 1324.69,-261"/>
<polygon fill="black" stroke="black" points="1324.95,-264.5 1334.95,-261 1324.95,-257.5 1324.95,-264.5"/>
</g>
<!-- N_29 -->
<g id="node30" class="node"><title>N_29</title>
<ellipse fill="#ffcc00" stroke="black" cx="569.856" cy="-126" rx="51.1914" ry="18"/>
<text text-anchor="middle" x="569.856" y="-122.3" font-family="Times,serif" font-size="14.00">pify@4.0.1</text>
</g>
<!-- N_28&#45;&gt;N_29 -->
<g id="edge29" class="edge"><title>N_28&#45;&gt;N_29</title>
<path fill="none" stroke="black" d="M405.216,-126C438.32,-126 476.633,-126 507.861,-126"/>
<polygon fill="black" stroke="black" points="508.162,-129.5 518.162,-126 508.162,-122.5 508.162,-129.5"/>
</g>
<!-- N_30 -->
<g id="node31" class="node"><title>N_30</title>
<ellipse fill="#ffcc00" stroke="black" cx="569.856" cy="-72" rx="87.1846" ry="18"/>
<text text-anchor="middle" x="569.856" y="-68.3" font-family="Times,serif" font-size="14.00">with&#45;open&#45;file@0.1.5</text>
</g>
<!-- N_28&#45;&gt;N_30 -->
<g id="edge30" class="edge"><title>N_28&#45;&gt;N_30</title>
<path fill="none" stroke="black" d="M384.393,-113.611C418.838,-105.841 463.525,-95.7607 500.288,-87.4677"/>
<polygon fill="black" stroke="black" points="501.447,-90.7942 510.432,-85.1794 499.907,-83.9658 501.447,-90.7942"/>
</g>
<!-- N_31 -->
<g id="node32" class="node"><title>N_31</title>
<ellipse fill="#cbff00" stroke="black" cx="817.087" cy="-126" rx="67.6881" ry="18"/>
<text text-anchor="middle" x="817.087" y="-122.3" font-family="Times,serif" font-size="14.00">p&#45;finally@1.0.0</text>
</g>
<!-- N_30&#45;&gt;N_31 -->
<g id="edge31" class="edge"><title>N_30&#45;&gt;N_31</title>
<path fill="none" stroke="black" d="M630.219,-85.0719C667.825,-93.3527 716.362,-104.04 754.405,-112.418"/>
<polygon fill="black" stroke="black" points="753.819,-115.872 764.337,-114.605 755.324,-109.036 753.819,-115.872"/>
</g>
<!-- N_32 -->
<g id="node33" class="node"><title>N_32</title>
<ellipse fill="#cbff00" stroke="black" cx="817.087" cy="-72" rx="53.8905" ry="18"/>
<text text-anchor="middle" x="817.087" y="-68.3" font-family="Times,serif" font-size="14.00">p&#45;try@2.0.0</text>
</g>
<!-- N_30&#45;&gt;N_32 -->
<g id="edge32" class="edge"><title>N_30&#45;&gt;N_32</title>
<path fill="none" stroke="black" d="M656.97,-72C688.575,-72 723.739,-72 752.956,-72"/>
<polygon fill="black" stroke="black" points="753.027,-75.5001 763.027,-72 753.027,-68.5001 753.027,-75.5001"/>
</g>
<!-- N_33 -->
<g id="node34" class="node"><title>N_33</title>
<ellipse fill="#cbff00" stroke="black" cx="817.087" cy="-18" rx="51.1914" ry="18"/>
<text text-anchor="middle" x="817.087" y="-14.3" font-family="Times,serif" font-size="14.00">pify@3.0.0</text>
</g>
<!-- N_30&#45;&gt;N_33 -->
<g id="edge33" class="edge"><title>N_30&#45;&gt;N_33</title>
<path fill="none" stroke="black" d="M630.219,-58.9281C670.688,-50.0169 723.815,-38.3184 762.901,-29.7115"/>
<polygon fill="black" stroke="black" points="764.011,-33.0511 773.025,-27.4824 762.506,-26.2148 764.011,-33.0511"/>
</g>
</g>
</svg>
